#!OML:ASF E:\emotionWalksFemale\Project 1\Capture day 1\Session 1\Female1.ASF
:FULLY-SPECIFIED
:DEGREES
347
root 9.02605 18.7723 21.714 209.389 -80.6876 156.828
lowerback 2.94783 4.04339 3.79398
upperback -6.22052 5.43129 -2.2768
thorax -7.60394 2.32154 -5.00185
lowerneck -4.32099 17.5586 14.0489
upperneck 11.2606 24.4395 -13.2843
head 7.51912 11.6761 -3.82662
rclavicle -6.80837e-015 1.39149e-014
rhumerus -40.404 23.1803 -98.7792
rradius 48.9837
rwrist 22.4489
rhand -6.74382 -53.7155
rfingers 7.12502
rthumb 19.1172 -442.796
lclavicle -6.80837e-015 1.39149e-014
lhumerus -43.3949 -8.38735 87.7882
lradius 25.6137
lwrist -41.7871
lhand 25.1983 -28.8646
lfingers 7.12502
lthumb 49.3431 -7.30366
rfemur -7.59059 16.5224 24.4006
rtibia 18.7822
rfoot 0.168692 -37.0567
rtoes 39.6337
lfemur -14.8136 -23.63 -22.5882
ltibia 18.2036
lfoot 0.207519 25.4464
ltoes 46.6776
348
root 9.04613 18.902 21.6858 218.47 -84.2417 147.792
lowerback 3.12379 3.77954 4.34117
upperback -6.26735 5.14928 -1.98955
thorax -7.77107 2.15355 -5.00013
lowerneck -4.33576 17.709 13.7236
upperneck 11.7784 24.617 -12.5411
head 7.57022 11.7837 -3.52614
rclavicle -2.99419e-014 1.35174e-014
rhumerus -41.4202 21.7133 -98.0723
rradius 48.7301
rwrist 22.3416
rhand -6.0827 -54.1092
rfingers 7.12502
rthumb 19.7529 -443.126
lclavicle -2.99419e-014 1.35174e-014
lhumerus -42.8386 -9.37645 88.6439
lradius 25.5119
lwrist -41.5972
lhand 23.3637 -29.0383
lfingers 7.12502
lthumb 47.6547 -6.66599
rfemur -7.79992 17.7046 24.7996
rtibia 17.9572
rfoot 2.85321 -35.8404
rtoes 34.3692
lfemur -15.0428 -22.0576 -22.2051
ltibia 19.2706
lfoot 0.480118 24.7769
ltoes 49.3795
349
root 9.06551 19.0212 21.6491 252.272 -87.5012 113.727
lowerback 3.50872 3.39268 4.94841
upperback -6.22225 4.73028 -1.58522
thorax -7.9861 1.91883 -4.90658
lowerneck -4.33811 17.7372 13.6451
upperneck 12.2204 24.6545 -12.1551
head 7.65681 11.814 -3.38443
rclavicle -2.6662e-014 -1.59028e-015
rhumerus -42.3589 20.4073 -97.3963
rradius 48.2529
rwrist 22.0401
rhand -5.59541 -54.2587
rfingers 7.12502
rthumb 20.2212 -443.226
lclavicle -2.6662e-014 -1.59028e-015
lhumerus -42.558 -10.3633 89.5208
lradius 25.5058
lwrist -41.5569
lhand 19.0628 -28.5725
lfingers 7.12502
lthumb 43.661 -4.56438
rfemur -7.46486 18.7036 25.5524
rtibia 16.887
rfoot 4.38615 -35.1263
rtoes 29.7132
lfemur -15.1172 -21.0966 -21.5673
ltibia 20.374
lfoot 1.85998 24.9848
ltoes 45.6037
350
root 9.08405 19.1308 21.6114 334.709 -87.1376 30.8342
lowerback 4.14423 3.15227 5.57031
upperback -6.19466 4.53403 -1.14131
thorax -8.34744 1.78639 -4.81287
lowerneck -4.31175 17.6408 13.6089
upperneck 12.819 24.559 -11.9144
head 7.79932 11.7697 -3.31
rclavicle 4.04775e-014 4.77083e-015
rhumerus -43.2968 19.121 -96.603
rradius 47.5109
rwrist 21.4636
rhand -5.9079 -54.2871
rfingers 7.12502
rthumb 19.9209 -443.286
lclavicle 4.04775e-014 4.77083e-015
lhumerus -42.3027 -10.6654 90.0882
lradius 25.7828
lwrist -40.6069
lhand 18.1647 -28.1211
lfingers 7.12502
lthumb 42.8217 -3.81248
rfemur -6.94082 19.3127 26.3139
rtibia 15.7826
rfoot 4.48821 -35.1183
rtoes 36.1587
lfemur -14.9405 -20.6591 -20.8725
ltibia 21.317
lfoot 3.05517 24.3188
ltoes 43.0337
351
root 9.09779 19.2279 21.5744 357.025 -84.0155 7.83997
lowerback 4.97096 2.88285 5.97964
upperback -6.1804 4.30705 -0.652951
thorax -8.86027 1.64572 -4.55829
lowerneck -4.45119 17.4928 12.8713
upperneck 13.5993 24.3358 -11.0291
head 7.83856 11.6685 -2.97135
rclavicle 5.58585e-014 7.95139e-015
rhumerus -44.3743 17.7744 -95.6084
rradius 46.7106
rwrist 21.1224
rhand -6.3227 -54.025
rfingers 7.12502
rthumb 19.5221 -443.065
lclavicle 5.58585e-014 7.95139e-015
lhumerus -42.3587 -10.8475 90.738
lradius 26.2816
lwrist -39.7073
lhand 17.5905 -28.232
lfingers 7.12502
lthumb 42.2842 -3.73786
rfemur -6.33792 18.9537 26.9859
rtibia 14.8654
rfoot 6.71203 -35.1401
rtoes 38.5877
lfemur -14.4036 -20.9333 -20.3151
ltibia 21.9753
lfoot 2.10105 23.7081
ltoes 44.0694
352
root 9.09707 19.3125 21.5415 361.076 -80.5016 3.02038
lowerback 5.63034 2.54349 6.11676
upperback -6.06724 3.94229 -0.317332
thorax -9.18681 1.46181 -4.27549
lowerneck -4.54508 17.309 12.5762
upperneck 14.1736 24.0972 -10.6528
head 7.9285 11.5512 -2.84092
rclavicle 1.72446e-014 2.78299e-015
rhumerus -45.3799 16.4878 -94.7009
rradius 46.0217
rwrist 21.0892
rhand -5.94011 -54.0322
rfingers 7.12502
rthumb 19.8899 -443.034
lclavicle 1.72446e-014 2.78299e-015
lhumerus -42.298 -10.9793 91.0876
lradius 26.7952
lwrist -38.6284
lhand 17.7707 -29.1396
lfingers 7.12502
lthumb 42.4529 -4.70312
rfemur -5.83534 17.5087 27.344
rtibia 14.4007
rfoot 11.8324 -34.0044
rtoes 33.0839
lfemur -13.5872 -21.7818 -20.1216
ltibia 22.2532
lfoot 0.139399 23.6894
ltoes 44.5613
353
root 9.0919 19.3842 21.5075 361.117 -76.9442 2.19638
lowerback 6.19112 2.21588 6.04732
upperback -5.81395 3.54477 -0.230016
thorax -9.29539 1.28143 -4.12017
lowerneck -4.94307 17.1125 12.4627
upperneck 14.7035 23.8026 -10.3515
head 8.08341 11.3988 -2.73383
rclavicle -2.5842e-015 -2.38542e-015
rhumerus -46.1836 15.3992 -94.0146
rradius 45.4433
rwrist 20.9885
rhand -5.45463 -54.25
rfingers 7.12502
rthumb 20.3565 -443.203
lclavicle -2.5842e-015 -2.38542e-015
lhumerus -41.6564 -10.8933 90.9057
lradius 26.9603
lwrist -37.7679
lhand 17.8817 -29.7455
lfingers 7.12502
lthumb 42.5569 -5.3448
rfemur -5.4469 16.8992 27.3427
rtibia 14.4959
rfoot 14.1775 -33.3657
rtoes 28.4801
lfemur -12.5514 -22.3362 -20.3588
ltibia 22.1505
lfoot -1.48817 23.9289
ltoes 46.1294
354
root 9.09485 19.4448 21.4643 360.431 -73.289 2.41595
lowerback 6.63008 1.91327 5.64716
upperback -5.68225 3.13488 -0.152994
thorax -9.47788 1.11055 -3.78028
lowerneck -5.5412 16.8528 12.2338
upperneck 15.4306 23.43 -10.0349
head 8.31591 11.1912 -2.59785
rclavicle 2.03754e-014 1.98785e-015
rhumerus -46.999 14.2365 -93.1352
rradius 44.7429
rwrist 21.1207
rhand -5.12488 -54.032
rfingers 7.12502
rthumb 20.6734 -442.951
lclavicle 2.03754e-014 1.98785e-015
lhumerus -41.0526 -10.6569 90.7721
lradius 27.059
lwrist -37.0464
lhand 17.054 -29.8067
lfingers 7.12502
lthumb 41.7814 -5.14382
rfemur -5.59241 16.6786 27.0176
rtibia 14.9574
rfoot 15.7571 -32.4461
rtoes 23.1441
lfemur -11.6849 -21.84 -20.7423
ltibia 21.7136
lfoot -4.44722 23.9761
ltoes 52.4442
355
root 9.10287 19.4936 21.4241 359.688 -69.2597 2.90003
lowerback 6.93034 1.53189 5.30025
upperback -5.61723 2.60859 -0.125147
thorax -9.65271 0.87679 -3.49566
lowerneck -6.16562 16.4428 12.2283
upperneck 16.1403 22.8917 -10.0825
head 8.60674 10.8882 -2.6238
rclavicle -9.29318e-015 5.1684e-015
rhumerus -47.6399 12.9874 -92.171
rradius 43.7259
rwrist 21.3266
rhand -5.08595 -53.6885
rfingers 7.12502
rthumb 20.7108 -442.603
lclavicle -9.29318e-015 5.1684e-015
lhumerus -40.4597 -9.76545 90.3641
lradius 27.0749
lwrist -36.8935
lhand 16.5193 -30.1161
lfingers 7.12502
lthumb 41.2798 -5.28925
rfemur -6.27622 16.8094 26.4068
rtibia 16.1041
rfoot 15.198 -31.9113
rtoes 22.2662
lfemur -10.9056 -20.9641 -21.2269
ltibia 20.8326
lfoot -7.48888 23.878
ltoes 57.9329
356
root 9.10325 19.5455 21.3893 358.567 -65.2952 3.75665
lowerback 7.13184 1.13008 4.74127
upperback -5.47724 2.01974 -0.104279
thorax -9.68917 0.634203 -3.0794
lowerneck -6.38846 16.1205 11.8035
upperneck 16.2944 22.4501 -9.8776
head 8.56975 10.6652 -2.56142
rclavicle 2.6985e-014 -1.59028e-015
rhumerus -48.1899 12.4834 -91.4681
rradius 42.7023
rwrist 20.9999
rhand -5.13334 -53.6159
rfingers 7.12502
rthumb 20.6653 -442.536
lclavicle 2.6985e-014 -1.59028e-015
lhumerus -39.9063 -8.74982 89.9823
lradius 27.2547
lwrist -36.8324
lhand 16.5771 -30.542
lfingers 7.12502
lthumb 41.334 -5.73267
rfemur -6.90959 17.1812 25.5126
rtibia 17.4952
rfoot 13.5413 -31.6158
rtoes 24.8875
lfemur -9.96849 -20.1115 -21.9073
ltibia 19.666
lfoot -4.49581 25.2553
ltoes 53.8347
357
root 9.09084 19.5539 21.3631 357.296 -61.6296 4.80347
lowerback 7.14892 0.757821 3.8797
upperback -5.33554 1.42747 -0.0371001
thorax -9.60828 0.414704 -2.4343
lowerneck -6.41429 15.8671 11.3857
upperneck 16.4213 22.1453 -9.78942
head 8.52253 10.5054 -2.52899
rclavicle -6.16232e-015 -7.15625e-015
rhumerus -48.8036 12.4798 -90.9339
rradius 41.6988
rwrist 20.7081
rhand -4.84508 -53.4322
rfingers 7.12502
rthumb 20.9423 -442.322
lclavicle -6.16232e-015 -7.15625e-015
lhumerus -39.8269 -8.78655 90.3345
lradius 27.8201
lwrist -35.9193
lhand 16.4807 -30.8945
lfingers 7.12502
lthumb 41.2435 -6.05602
rfemur -7.4428 17.078 24.4074
rtibia 18.8512
rfoot 13.8945 -30.3076
rtoes 23.1334
lfemur -8.67036 -17.9145 -23.1337
ltibia 18.3629
lfoot -4.65404 25.1731
ltoes 56.0251
358
root 9.07039 19.5633 21.3407 356.356 -57.9313 5.89322
lowerback 6.71649 0.477117 2.93754
upperback -5.22848 0.920801 -0.114894
thorax -9.275 0.237982 -1.90414
lowerneck -6.57342 15.5569 10.9829
upperneck 16.5574 21.7301 -9.60999
head 8.48169 10.2962 -2.47491
rclavicle 4.48259e-014 5.56597e-015
rhumerus -49.0934 11.8752 -90.368
rradius 40.359
rwrist 20.9235
rhand -4.58383 -53.3811
rfingers 7.12502
rthumb 21.1932 -442.243
lclavicle 4.48259e-014 5.56597e-015
lhumerus -39.6546 -9.24472 90.7469
lradius 28.2489
lwrist -35.2066
lhand 16.178 -31.1123
lfingers 7.12502
lthumb 40.9593 -6.18303
rfemur -7.97583 18.5458 23.1115
rtibia 19.8944
rfoot 11.6378 -31.2253
rtoes 26.2984
lfemur -7.81548 -16.7666 -24.2775
ltibia 17.1782
lfoot -5.67991 25.7118
ltoes 58.1678
359
root 9.05365 19.5722 21.3152 355.858 -54.0689 6.61622
lowerback 6.34225 0.2484 2.12571
upperback -5.14916 0.507192 -0.232453
thorax -8.9902 0.0908692 -1.50913
lowerneck -6.87753 15.0254 10.3277
upperneck 16.5578 20.9639 -9.20147
head 8.33091 9.92609 -2.36352
rclavicle -1.94809e-014 -1.35174e-014
rhumerus -49.4207 10.9525 -89.6954
rradius 39.1631
rwrist 21.1087
rhand -4.20879 -53.7094
rfingers 7.12502
rthumb 21.5534 -442.53
lclavicle -1.94809e-014 -1.35174e-014
lhumerus -39.2729 -9.71846 91.0279
lradius 28.4479
lwrist -34.8539
lhand 15.9437 -31.1607
lfingers 7.12502
lthumb 40.7392 -6.16199
rfemur -8.49203 19.6125 21.8797
rtibia 20.7124
rfoot 10.3756 -31.6552
rtoes 26.2875
lfemur -7.24895 -16.102 -25.2057
ltibia 16.219
lfoot 3.55011 26.4962
ltoes 46.5418
